<?xml version="1.0" encoding="UTF-8"?>
<svg xmlns="http://www.w3.org/2000/svg" width="100%" viewBox="0 0 259 52" fill="none"><path d="M17.7172 15.788C18.9935 15.788 20.0281 14.7548 20.0281 13.4804C20.0281 12.2059 18.9935 11.1728 17.7172 11.1728C16.441 11.1728 15.4064 12.2059 15.4064 13.4804C15.4064 14.7548 16.441 15.788 17.7172 15.788Z" fill="white"></path><path d="M19.122 4.59615C19.1935 4.57349 19.2644 4.54602 19.3352 4.52473C19.3168 4.5288 19.2985 4.53291 19.2802 4.53709C19.2272 4.55628 19.1745 4.57596 19.122 4.59615ZM17.9686 5.04737C17.9893 5.03706 18.0071 5.02676 18.0292 5.01646C18.1254 4.97182 18.2217 4.93611 18.318 4.89559C18.2424 4.9225 18.1672 4.95043 18.0924 4.97938C18.051 5.00171 18.0097 5.02437 17.9686 5.04737ZM14.3924 8.14407C14.3634 8.18161 14.3347 8.21939 14.3064 8.2574C14.2953 8.2775 14.2843 8.29764 14.2734 8.31783C14.3112 8.25945 14.3532 8.20176 14.3924 8.14407ZM15.2871 7.02256C15.2125 7.09453 15.1391 7.16779 15.067 7.24232C15.003 7.32477 14.9404 7.40835 14.8793 7.493C15.01 7.33367 15.1441 7.1764 15.2871 7.02256Z" fill="white"></path><path fill-rule="evenodd" clip-rule="evenodd" d="M21.1751 1.01802C21.3779 1.00635 21.5801 1.00016 21.7816 1.00016C28.0169 0.967882 33.3282 5.70256 33.9494 11.966C33.9837 12.3211 34.0032 12.8279 34.0045 13.4852C34.0092 16.5297 34.0092 19.5728 34.0045 22.6146C34.0045 22.6403 33.9984 22.6657 33.987 22.6887C33.9756 22.7117 33.9588 22.7317 33.938 22.7471L27.0377 27.8486C27.027 27.8564 27.0142 27.8608 27.0008 27.861C26.9873 27.8613 26.9746 27.8574 26.9638 27.8499L24.2766 26.0066C24.2719 26.003 24.2679 25.9982 24.2646 25.9927C24.2619 25.9872 24.2605 25.981 24.2605 25.9748C24.2605 25.9686 24.2619 25.9625 24.2646 25.9569L24.2693 25.9496L24.276 25.9427L30.7713 21.1407C30.7814 21.1331 30.7908 21.1242 30.7988 21.1142L30.8129 21.0908C30.823 21.0712 30.8284 21.0495 30.8284 21.0274L30.827 20.0378C30.827 19.0964 30.827 18.1549 30.827 17.2134L28.4031 15.5293C27.8611 16.0966 27.0975 16.45 26.2506 16.45C24.6078 16.45 23.2766 15.1205 23.2766 13.4804C23.2766 13.0128 23.3847 12.5704 23.5775 12.1769L15.6355 6.65917C15.3138 6.98108 15.0613 7.24131 14.8793 7.493C14.7053 7.70522 14.5441 7.92293 14.3924 8.14407L14.3064 8.2574C13.5461 9.51284 12.9906 10.8692 12.8717 12.3465C12.8402 12.6665 12.8241 13.1727 12.8241 13.8657C12.8254 16.2474 12.8254 18.6299 12.8241 21.013C12.8241 21.0395 12.8301 21.0656 12.8422 21.0892C12.8536 21.1128 12.8711 21.1333 12.8926 21.149L36.1806 38.6798C36.509 38.9277 36.7783 39.0871 36.9885 39.1571C37.914 39.4662 38.8154 38.9744 39.1371 38.0789C39.3775 37.4093 39.2029 36.7815 38.6125 36.1971C38.5863 36.1717 38.5883 36.1483 38.6179 36.1264L41.0472 34.2377C41.0633 34.2257 41.0828 34.2202 41.1029 34.2222C41.1157 34.2236 41.1278 34.2281 41.1385 34.2354C41.1439 34.2391 41.1493 34.2436 41.1533 34.2487C42.2702 35.5371 42.7007 37.254 42.2138 38.8927C41.2211 42.2367 37.28 43.4839 34.4948 41.3864C26.2277 35.1607 17.9674 28.9412 9.71308 22.7286C9.68151 22.7046 9.66271 22.6675 9.66271 22.6276C9.6701 19.5845 9.66943 16.5372 9.65935 13.4852C9.65801 12.8636 9.67883 12.3575 9.72114 11.9674C10.1127 8.39887 11.7347 5.53843 14.5864 3.38605C16.4502 1.97952 18.8042 1.14714 21.1751 1.01802ZM16.3535 6.02451L24.1134 11.4154C24.6541 10.8576 25.4117 10.5107 26.2506 10.5107C27.8927 10.5107 29.2245 11.8403 29.2245 13.4804C29.2245 13.9401 29.1197 14.3755 28.933 14.764L30.827 16.0799C30.827 15.1957 30.8264 14.3116 30.8264 13.4275C30.8257 12.7799 30.7988 12.2744 30.7471 11.9118C30.2145 8.13309 27.3043 5.05081 23.5352 4.32968C20.7687 3.86473 18.7948 4.5989 17.7881 5.13872L17.7928 5.14352C17.4509 5.3073 16.8961 5.60359 16.3535 6.02451Z" fill="white"></path><path d="M40.7638 29.1823C39.9564 32.5613 35.8945 34.0962 33.0885 32.0125C32.028 31.2259 30.9726 30.446 29.9221 29.6727C29.9155 29.6678 29.9102 29.6614 29.9065 29.6541C29.9027 29.6468 29.9008 29.6388 29.9007 29.6306C29.9006 29.6224 29.9025 29.6143 29.9061 29.6069C29.9097 29.5996 29.915 29.5932 29.9215 29.5882L32.4434 27.6412C32.4533 27.6337 32.4654 27.6296 32.4778 27.6296C32.4902 27.6296 32.5023 27.6337 32.5122 27.6412C33.1472 28.1036 33.7838 28.5738 34.4221 29.0518C34.8971 29.4066 35.2485 29.6221 35.4764 29.6981C37.2494 30.2894 38.5479 27.9317 37.0974 26.7243C37.0904 26.7185 37.0848 26.7112 37.0811 26.7029C37.0774 26.6947 37.0755 26.6856 37.0758 26.6766C37.0761 26.6675 37.0784 26.6586 37.0826 26.6506C37.0868 26.6426 37.0928 26.6356 37.1002 26.6302L39.576 24.7505C39.5962 24.7354 39.615 24.7377 39.6324 24.7573C40.1647 25.3491 40.5456 26.0607 40.7426 26.8314C40.9396 27.602 40.9469 28.4082 40.7638 29.1823ZM6.40053 26.7167C4.72243 28.262 6.75884 30.7454 8.56968 29.4131C9.38764 28.811 10.2093 28.2098 11.0346 27.6096C11.0575 27.5922 11.0809 27.5924 11.1047 27.6102L13.6459 29.5387C13.6526 29.5436 13.658 29.5499 13.6618 29.5573C13.6655 29.5646 13.6675 29.5727 13.6675 29.581C13.6675 29.5892 13.6655 29.5973 13.6618 29.6047C13.658 29.612 13.6526 29.6184 13.6459 29.6232C12.7707 30.2637 11.8995 30.9077 11.0325 31.5551C10.4786 31.969 10.0573 32.2497 9.76843 32.3971C6.52158 34.0488 2.60486 31.7653 2.60624 28.0635C2.60624 26.8346 3.02233 25.7358 3.8545 24.767C3.87146 24.7468 3.8905 24.7445 3.91159 24.7601L6.39573 26.6268C6.43332 26.6552 6.43492 26.6856 6.40053 26.7167ZM4.7685 36.2479C4.19079 36.763 3.99342 37.7355 4.34898 38.4181C4.71693 39.1255 5.60757 39.4854 6.35721 39.2443C6.58784 39.1697 6.93744 38.9573 7.40602 38.607C10.4427 36.3338 13.4848 34.0605 16.5324 31.7873C16.54 31.7815 16.5494 31.7783 16.5592 31.7783C16.5689 31.7783 16.5786 31.7815 16.5867 31.7873L19.2146 33.6862C19.2196 33.6897 19.2237 33.6944 19.2266 33.6998C19.2294 33.7052 19.231 33.7112 19.231 33.7173C19.2311 33.7234 19.2297 33.7294 19.227 33.7349C19.2242 33.7404 19.2202 33.7451 19.2153 33.7487C15.8531 36.2605 12.4857 38.7741 9.113 41.2896C8.64625 41.6376 8.27671 41.8784 8.00436 42.0121C6.31663 42.841 4.22587 42.554 2.81874 41.4304C0.595261 39.655 0.435702 36.4697 2.20183 34.329C2.21036 34.3189 2.2224 34.3124 2.23546 34.3109C2.24852 34.3094 2.2616 34.3129 2.272 34.3208L4.76575 36.1806C4.77095 36.1844 4.77523 36.1894 4.77826 36.1951C4.78129 36.2008 4.78299 36.2071 4.78325 36.2136C4.78352 36.2201 4.78232 36.2265 4.77977 36.2324C4.77722 36.2384 4.77337 36.2437 4.7685 36.2479ZM22.9106 35.9135L22.9099 40.6104C22.9099 40.6172 22.9085 40.6239 22.9059 40.6302C22.9033 40.6365 22.8994 40.6422 22.8945 40.647C22.8897 40.6518 22.8839 40.6556 22.8776 40.6581C22.8712 40.6607 22.8644 40.662 22.8576 40.6619H21.0763C21.0627 40.6619 21.0496 40.6564 21.0399 40.6468C21.0302 40.6371 21.0248 40.624 21.0248 40.6104L21.0254 35.4478C21.0254 35.4398 21.0273 35.4319 21.0309 35.4248C21.0345 35.4176 21.0397 35.4114 21.0461 35.4066L21.6266 34.9726C21.6355 34.9657 21.6465 34.962 21.6578 34.962C21.6692 34.962 21.6802 34.9657 21.6891 34.9726L22.8893 35.8722C22.8957 35.877 22.9008 35.8833 22.9044 35.8904C22.908 35.8976 22.9106 35.9055 22.9106 35.9135ZM18.8577 37.0906L18.8584 44.5497C18.8585 44.553 18.8579 44.5562 18.8567 44.5591C18.8556 44.5621 18.8538 44.5649 18.8516 44.5672C18.8493 44.5695 18.8466 44.5713 18.8437 44.5726C18.8407 44.5738 18.8375 44.5745 18.8343 44.5745H16.9966C16.9934 44.5746 16.9901 44.574 16.9871 44.5728C16.984 44.5716 16.9812 44.5697 16.9789 44.5674C16.9766 44.5651 16.9748 44.5624 16.9736 44.5593C16.9724 44.5563 16.9718 44.553 16.9719 44.5497L16.9726 38.4594C16.9724 38.4553 16.9733 38.4513 16.9751 38.4477C16.9769 38.4441 16.9796 38.441 16.9829 38.4387L18.8192 37.0707C18.8228 37.068 18.8271 37.0663 18.8316 37.0659C18.8361 37.0656 18.8407 37.0665 18.8447 37.0686C18.8487 37.0706 18.8521 37.0738 18.8544 37.0777C18.8567 37.0816 18.8578 37.0861 18.8577 37.0906ZM26.9827 38.9655V44.5497C26.9828 44.5529 26.9823 44.5561 26.9811 44.559C26.9799 44.562 26.9781 44.5647 26.9759 44.5669C26.9736 44.5692 26.9709 44.571 26.968 44.5721C26.965 44.5733 26.9618 44.5739 26.9586 44.5738L25.1224 44.571C25.1192 44.571 25.1161 44.5704 25.1132 44.5692C25.1104 44.568 25.1078 44.5662 25.1056 44.5639C25.1034 44.5617 25.1017 44.5591 25.1006 44.5561C25.0994 44.5532 25.0989 44.5501 25.099 44.547V37.5858C25.0988 37.5813 25.0999 37.5769 25.1022 37.5731C25.1044 37.5692 25.1078 37.5661 25.1117 37.5641C25.1157 37.562 25.1202 37.5612 25.1246 37.5616C25.1291 37.5621 25.1333 37.5638 25.1368 37.5665L26.9731 38.947C26.9758 38.9491 26.978 38.9518 26.9796 38.9549C26.9811 38.958 26.9826 38.9621 26.9827 38.9655ZM14.7855 40.1399V47.6664C14.7855 47.6731 14.7828 47.6796 14.7781 47.6843C14.7733 47.6891 14.7668 47.6918 14.7601 47.6918H12.9266C12.9199 47.6916 12.9136 47.6888 12.909 47.6841C12.9044 47.6793 12.9018 47.673 12.9018 47.6664L12.9011 41.4805C12.9012 41.4765 12.9022 41.4725 12.9041 41.4689C12.906 41.4653 12.9088 41.4622 12.9121 41.4599L14.7463 40.1193C14.7501 40.1169 14.7545 40.1155 14.759 40.1153C14.7635 40.1151 14.768 40.1161 14.7719 40.1182C14.7759 40.1203 14.7793 40.1234 14.7817 40.1272C14.7841 40.131 14.7854 40.1354 14.7855 40.1399ZM30.6787 41.5842C30.7509 41.6206 30.9111 41.6735 30.9985 41.7367C31.0237 41.7555 31.0363 41.7806 31.0363 41.8122V47.632C31.0364 47.6399 31.0349 47.6478 31.032 47.6551C31.029 47.6624 31.0247 47.6691 31.0192 47.6747C31.0137 47.6803 31.0072 47.6848 30.9999 47.6879C30.9927 47.6909 30.985 47.6925 30.9771 47.6925L29.209 47.6918C29.1704 47.6913 29.1512 47.6721 29.1512 47.6341V40.6564C29.1511 40.649 29.1531 40.6418 29.1571 40.6357C29.1611 40.6295 29.1668 40.6246 29.1736 40.6216C29.1804 40.6186 29.1879 40.6177 29.1953 40.6188C29.2027 40.62 29.2096 40.6233 29.2151 40.6282C29.6691 41.0036 30.1569 41.3219 30.6787 41.5842Z" fill="white"></path><path d="M22.8669 42.3001L21.076 42.2938C21.0513 42.2938 21.0312 42.3137 21.0311 42.3383L21.0255 43.9392C21.0254 43.9639 21.0454 43.9839 21.0701 43.984L22.861 43.9902C22.8857 43.9903 22.9057 43.9704 22.9058 43.9458L22.9114 42.3449C22.9115 42.3202 22.8916 42.3002 22.8669 42.3001Z" fill="white"></path><path d="M18.8185 46.1898H17.0111C16.9906 46.1898 16.974 46.2064 16.974 46.2269V47.8463C16.974 47.8668 16.9906 47.8834 17.0111 47.8834H18.8185C18.839 47.8834 18.8556 47.8668 18.8556 47.8463V46.2269C18.8556 46.2064 18.839 46.1898 18.8185 46.1898Z" fill="white"></path><path d="M26.9404 46.1918H25.144C25.1204 46.1918 25.1013 46.2109 25.1013 46.2344V47.8394C25.1013 47.8629 25.1204 47.882 25.144 47.882H26.9404C26.9639 47.882 26.983 47.8629 26.983 47.8394V46.2344C26.983 46.2109 26.9639 46.1918 26.9404 46.1918Z" fill="white"></path><path d="M14.7347 49.3091H12.9535C12.9257 49.3091 12.9032 49.3316 12.9032 49.3593V50.9492C12.9032 50.9769 12.9257 50.9993 12.9535 50.9993H14.7347C14.7625 50.9993 14.7849 50.9769 14.7849 50.9492V49.3593C14.7849 49.3316 14.7625 49.3091 14.7347 49.3091Z" fill="white"></path><path d="M30.984 49.3064H29.2042C29.1761 49.3064 29.1533 49.3291 29.1533 49.3572V50.9492C29.1533 50.9772 29.1761 51 29.2042 51H30.984C31.0121 51 31.0349 50.9772 31.0349 50.9492V49.3572C31.0349 49.3291 31.0121 49.3064 30.984 49.3064Z" fill="white"></path><path d="M67.845 38.9875C62.5126 38.9875 58.532 34.45 58.532 28.375C58.532 22.3 62.3999 17.7625 67.845 17.7625C70.8492 17.7625 73.4404 18.925 74.7547 21.3625H74.7923C74.7547 20.05 74.7547 19.525 74.7547 17.95V11.35H78.6226V38.5H74.7547C74.7547 37.2625 74.7547 36.55 74.7923 35.35H74.7547C73.3653 37.6375 70.8117 38.9875 67.845 38.9875ZM68.5961 35.5C72.4264 35.5 74.9049 32.575 74.9049 28.4125C74.9049 24.175 72.3889 21.325 68.5961 21.325C64.8784 21.325 62.3999 24.4 62.3999 28.4125C62.3999 32.425 64.8784 35.5 68.5961 35.5Z" fill="white"></path><path d="M83.1955 38.5V18.25H87.0635C87.0635 19.5625 87.0635 20.35 87.0259 21.625H87.0635C88.2276 19.375 90.2179 18.2125 92.6212 18.2125C92.9592 18.2125 93.3347 18.2125 93.7103 18.25V21.775H92.3208C88.866 21.775 87.0635 24.4 87.0635 27.5875V38.5H83.1955Z" fill="white"></path><path d="M106.678 39.0625C100.632 39.0625 96.576 34.5625 96.576 28.4125C96.576 22.225 100.669 17.65 106.715 17.65C112.836 17.65 116.254 21.6625 116.254 27.8125C116.254 28.375 116.216 28.8625 116.141 29.425H100.331C100.744 33.025 103.185 35.6125 106.828 35.6125C109.381 35.6125 111.372 34.375 112.536 32.05L115.765 33.6625C113.963 37.3 110.696 39.0625 106.678 39.0625ZM100.481 26.35H112.649C112.198 23.1625 110.17 21.1 106.715 21.1C103.448 21.1 101.195 23.275 100.481 26.35Z" fill="white"></path><path d="M128.963 39.025C123.518 39.025 119.65 34.5625 119.65 28.45C119.65 22.375 123.631 17.8 128.963 17.8C132.08 17.8 134.484 19.075 135.835 21.55H135.911C135.873 20.3875 135.873 19.6375 135.873 18.25H139.741V38.5H135.873C135.873 37.1125 135.873 36.5875 135.911 35.275H135.835C134.409 37.6 131.817 39.025 128.963 39.025ZM129.714 35.5C133.545 35.5 136.023 32.65 136.023 28.4125C136.023 24.25 133.507 21.325 129.714 21.325C125.997 21.325 123.518 24.4375 123.518 28.45C123.518 32.4625 125.997 35.5 129.714 35.5Z" fill="white"></path><path d="M153.101 38.9875C147.769 38.9875 143.788 34.45 143.788 28.375C143.788 22.3 147.656 17.7625 153.101 17.7625C156.105 17.7625 158.697 18.925 160.011 21.3625H160.048C160.011 20.05 160.011 19.525 160.011 17.95V11.35H163.879V38.5H160.011C160.011 37.2625 160.011 36.55 160.048 35.35H160.011C158.621 37.6375 156.068 38.9875 153.101 38.9875ZM153.852 35.5C157.683 35.5 160.161 32.575 160.161 28.4125C160.161 24.175 157.645 21.325 153.852 21.325C150.135 21.325 147.656 24.4 147.656 28.4125C147.656 32.425 150.135 35.5 153.852 35.5Z" fill="white"></path><path d="M168.452 38.5V18.25H172.32C172.32 19.5625 172.32 20.275 172.282 21.5125H172.357C173.559 19.225 175.85 17.7625 178.704 17.7625C183.623 17.7625 186.139 21.25 186.139 25.675V38.5H182.271V26.6875C182.271 23.5375 180.619 21.2875 177.389 21.2875C174.085 21.2875 172.32 23.875 172.32 26.875V38.5H168.452Z" fill="white"></path><path d="M200.41 39.0625C194.326 39.0625 190.12 34.45 190.12 28.3375C190.12 22.225 194.326 17.6875 200.41 17.6875C206.456 17.6875 210.661 22.225 210.661 28.3375C210.661 34.4125 206.456 39.0625 200.41 39.0625ZM200.41 35.5375C204.24 35.5375 206.718 32.275 206.718 28.3375C206.718 24.3625 204.277 21.175 200.41 21.175C196.504 21.175 194.026 24.3625 194.026 28.3375C194.026 32.275 196.504 35.5375 200.41 35.5375Z" fill="white"></path><path d="M223.498 38.9875C218.165 38.9875 214.185 34.45 214.185 28.375C214.185 22.3 218.053 17.7625 223.498 17.7625C226.502 17.7625 229.093 18.925 230.407 21.3625H230.445C230.407 20.05 230.407 19.525 230.407 17.95V11.35H234.275V38.5H230.407C230.407 37.2625 230.407 36.55 230.445 35.35H230.407C229.018 37.6375 226.464 38.9875 223.498 38.9875ZM224.249 35.5C228.079 35.5 230.558 32.575 230.558 28.4125C230.558 24.175 228.042 21.325 224.249 21.325C220.531 21.325 218.053 24.4 218.053 28.4125C218.053 32.425 220.531 35.5 224.249 35.5Z" fill="white"></path><path d="M248.424 39.0625C242.378 39.0625 238.322 34.5625 238.322 28.4125C238.322 22.225 242.416 17.65 248.462 17.65C254.583 17.65 258 21.6625 258 27.8125C258 28.375 257.962 28.8625 257.887 29.425H242.078C242.491 33.025 244.932 35.6125 248.574 35.6125C251.128 35.6125 253.118 34.375 254.282 32.05L257.512 33.6625C255.709 37.3 252.442 39.0625 248.424 39.0625ZM242.228 26.35H254.395C253.944 23.1625 251.916 21.1 248.462 21.1C245.195 21.1 242.941 23.275 242.228 26.35Z" fill="white"></path><path d="M14.3924 8.14407C14.3634 8.18161 14.3347 8.21939 14.3064 8.2574M14.3924 8.14407C14.3532 8.20176 14.3112 8.25945 14.2734 8.31783C14.2843 8.29764 14.2953 8.2775 14.3064 8.2574M14.3924 8.14407C14.5441 7.92293 14.7053 7.70522 14.8793 7.493M14.3924 8.14407L14.3064 8.2574M14.3064 8.2574C13.5461 9.51284 12.9906 10.8692 12.8717 12.3465C12.8402 12.6665 12.8241 13.1727 12.8241 13.8657C12.8254 16.2474 12.8254 18.6299 12.8241 21.013C12.8241 21.0395 12.8301 21.0656 12.8422 21.0892C12.8536 21.1128 12.8711 21.1333 12.8926 21.149L36.1806 38.6798C36.509 38.9277 36.7783 39.0871 36.9885 39.1571C37.914 39.4662 38.8154 38.9744 39.1371 38.0789C39.3775 37.4093 39.2029 36.7815 38.6125 36.1971C38.5863 36.1717 38.5883 36.1483 38.6179 36.1264L41.0472 34.2377C41.0633 34.2257 41.0828 34.2202 41.1029 34.2222C41.1157 34.2236 41.1278 34.2281 41.1385 34.2354C41.1439 34.2391 41.1493 34.2436 41.1533 34.2487C42.2702 35.5371 42.7007 37.254 42.2138 38.8927C41.2211 42.2367 37.28 43.4839 34.4948 41.3864C26.2277 35.1607 17.9674 28.9412 9.71308 22.7286C9.68151 22.7046 9.66271 22.6675 9.66271 22.6276C9.6701 19.5845 9.66942 16.5372 9.65935 13.4852C9.65801 12.8636 9.67883 12.3575 9.72114 11.9674C10.1127 8.39887 11.7347 5.53843 14.5864 3.38605C16.4502 1.97952 18.8042 1.14714 21.1751 1.01802C21.3779 1.00635 21.5801 1.00016 21.7816 1.00016C28.0169 0.967882 33.3282 5.70256 33.9494 11.966C33.9837 12.3211 34.0032 12.8279 34.0045 13.4852C34.0092 16.5297 34.0092 19.5728 34.0045 22.6146C34.0045 22.6403 33.9984 22.6657 33.987 22.6887C33.9756 22.7117 33.9588 22.7317 33.938 22.7471L27.0377 27.8486C27.027 27.8564 27.0142 27.8608 27.0008 27.861C26.9873 27.8613 26.9746 27.8574 26.9638 27.8499L24.2766 26.0066C24.2719 26.003 24.2679 25.9982 24.2646 25.9927C24.2619 25.9872 24.2605 25.981 24.2605 25.9748C24.2605 25.9686 24.2619 25.9625 24.2646 25.9569L24.2693 25.9496L24.276 25.9427L30.7713 21.1407C30.7814 21.1331 30.7908 21.1242 30.7988 21.1142L30.8129 21.0908C30.823 21.0712 30.8284 21.0495 30.8284 21.0274L30.827 20.0378C30.827 19.0964 30.827 18.1549 30.827 17.2134L28.4031 15.5293C27.8611 16.0966 27.0975 16.45 26.2506 16.45C24.6078 16.45 23.2766 15.1205 23.2766 13.4804C23.2766 13.0128 23.3847 12.5704 23.5775 12.1769L15.6355 6.65917C15.3138 6.98108 15.0613 7.24131 14.8793 7.493M14.8793 7.493C14.9404 7.40835 15.003 7.32477 15.067 7.24232C15.1391 7.16779 15.2125 7.09453 15.2871 7.02256C15.1441 7.1764 15.01 7.33367 14.8793 7.493ZM20.0281 13.4804C20.0281 14.7548 18.9935 15.788 17.7172 15.788C16.441 15.788 15.4064 14.7548 15.4064 13.4804C15.4064 12.2059 16.441 11.1728 17.7172 11.1728C18.9935 11.1728 20.0281 12.2059 20.0281 13.4804ZM19.122 4.59615C19.1935 4.57349 19.2644 4.54602 19.3352 4.52473C19.3168 4.5288 19.2985 4.53291 19.2802 4.53709C19.2272 4.55628 19.1745 4.57596 19.122 4.59615ZM17.9686 5.04737C17.9893 5.03706 18.0071 5.02676 18.0292 5.01646C18.1254 4.97182 18.2217 4.93611 18.318 4.89559C18.2424 4.9225 18.1672 4.95043 18.0924 4.97938C18.051 5.00171 18.0097 5.02438 17.9686 5.04737ZM24.1134 11.4154L16.3535 6.02451C16.8961 5.60359 17.4509 5.3073 17.7928 5.14352L17.7881 5.13872C18.7948 4.5989 20.7687 3.86473 23.5352 4.32968C27.3043 5.0508 30.2145 8.13309 30.7471 11.9118C30.7988 12.2744 30.8257 12.7799 30.8264 13.4275C30.8264 14.3116 30.827 15.1957 30.827 16.0799L28.933 14.764C29.1197 14.3755 29.2245 13.9401 29.2245 13.4804C29.2245 11.8403 27.8927 10.5107 26.2506 10.5107C25.4117 10.5107 24.6541 10.8576 24.1134 11.4154ZM40.7638 29.1823C39.9564 32.5613 35.8945 34.0962 33.0885 32.0125C32.028 31.2259 30.9726 30.446 29.9221 29.6727C29.9155 29.6678 29.9102 29.6614 29.9065 29.6541C29.9027 29.6468 29.9008 29.6388 29.9007 29.6306C29.9006 29.6224 29.9025 29.6143 29.9061 29.6069C29.9097 29.5996 29.915 29.5932 29.9215 29.5882L32.4434 27.6412C32.4533 27.6337 32.4654 27.6296 32.4778 27.6296C32.4902 27.6296 32.5023 27.6337 32.5122 27.6412C33.1472 28.1036 33.7838 28.5738 34.4221 29.0518C34.8971 29.4066 35.2485 29.6221 35.4764 29.6981C37.2494 30.2894 38.5479 27.9317 37.0974 26.7243C37.0904 26.7185 37.0848 26.7112 37.0811 26.7029C37.0774 26.6947 37.0755 26.6856 37.0758 26.6766C37.0761 26.6675 37.0784 26.6586 37.0826 26.6506C37.0868 26.6426 37.0928 26.6356 37.1002 26.6302L39.576 24.7505C39.5962 24.7354 39.615 24.7377 39.6324 24.7573C40.1647 25.3491 40.5456 26.0607 40.7426 26.8314C40.9396 27.602 40.9469 28.4082 40.7638 29.1823ZM6.40053 26.7167C4.72243 28.262 6.75884 30.7454 8.56968 29.4131C9.38764 28.811 10.2093 28.2098 11.0346 27.6096C11.0575 27.5922 11.0809 27.5924 11.1047 27.6102L13.6459 29.5387C13.6526 29.5436 13.658 29.5499 13.6618 29.5573C13.6655 29.5646 13.6675 29.5727 13.6675 29.581C13.6675 29.5892 13.6655 29.5973 13.6618 29.6047C13.658 29.612 13.6526 29.6184 13.6459 29.6232C12.7707 30.2637 11.8995 30.9077 11.0325 31.5551C10.4786 31.969 10.0573 32.2497 9.76843 32.3971C6.52158 34.0488 2.60486 31.7653 2.60624 28.0635C2.60624 26.8346 3.02233 25.7358 3.8545 24.767C3.87146 24.7468 3.8905 24.7445 3.91159 24.7601L6.39573 26.6268C6.43332 26.6552 6.43492 26.6856 6.40053 26.7167ZM4.7685 36.2479C4.19079 36.763 3.99342 37.7355 4.34898 38.4181C4.71693 39.1255 5.60757 39.4854 6.35721 39.2443C6.58784 39.1697 6.93744 38.9573 7.40602 38.607C10.4427 36.3338 13.4848 34.0605 16.5324 31.7873C16.54 31.7815 16.5494 31.7783 16.5592 31.7783C16.5689 31.7783 16.5786 31.7815 16.5867 31.7873L19.2146 33.6862C19.2196 33.6897 19.2237 33.6944 19.2266 33.6998C19.2294 33.7052 19.231 33.7112 19.231 33.7173C19.2311 33.7234 19.2297 33.7294 19.227 33.7349C19.2242 33.7404 19.2202 33.7451 19.2153 33.7487C15.8531 36.2605 12.4857 38.7741 9.113 41.2896C8.64625 41.6376 8.27671 41.8784 8.00436 42.0121C6.31663 42.841 4.22587 42.554 2.81874 41.4304C0.595261 39.655 0.435702 36.4697 2.20183 34.329C2.21036 34.3189 2.2224 34.3124 2.23546 34.3109C2.24852 34.3094 2.2616 34.3129 2.272 34.3208L4.76575 36.1806C4.77095 36.1845 4.77523 36.1894 4.77826 36.1951C4.78129 36.2008 4.78299 36.2071 4.78325 36.2136C4.78352 36.2201 4.78232 36.2265 4.77977 36.2324C4.77722 36.2384 4.77337 36.2437 4.7685 36.2479ZM22.9106 35.9135L22.9099 40.6104C22.9099 40.6172 22.9085 40.6239 22.9059 40.6302C22.9033 40.6365 22.8994 40.6422 22.8945 40.647C22.8897 40.6518 22.8839 40.6556 22.8776 40.6581C22.8712 40.6607 22.8644 40.662 22.8576 40.6619H21.0763C21.0627 40.6619 21.0496 40.6564 21.0399 40.6468C21.0302 40.6371 21.0248 40.624 21.0248 40.6104L21.0254 35.4478C21.0254 35.4398 21.0273 35.4319 21.0309 35.4248C21.0345 35.4176 21.0397 35.4114 21.0461 35.4066L21.6266 34.9726C21.6355 34.9657 21.6465 34.962 21.6578 34.962C21.6692 34.962 21.6802 34.9657 21.6891 34.9726L22.8893 35.8722C22.8957 35.877 22.9008 35.8833 22.9044 35.8904C22.908 35.8976 22.9106 35.9055 22.9106 35.9135ZM18.8577 37.0906L18.8584 44.5497C18.8585 44.553 18.8579 44.5562 18.8567 44.5591C18.8556 44.5621 18.8538 44.5649 18.8516 44.5672C18.8493 44.5695 18.8466 44.5713 18.8437 44.5726C18.8407 44.5738 18.8375 44.5745 18.8343 44.5745H16.9966C16.9934 44.5746 16.9901 44.574 16.9871 44.5728C16.984 44.5716 16.9812 44.5697 16.9789 44.5674C16.9766 44.5651 16.9748 44.5624 16.9736 44.5593C16.9724 44.5563 16.9718 44.553 16.9719 44.5497L16.9726 38.4594C16.9724 38.4553 16.9733 38.4513 16.9751 38.4477C16.9769 38.4441 16.9796 38.441 16.9829 38.4387L18.8192 37.0707C18.8228 37.068 18.8271 37.0663 18.8316 37.0659C18.8361 37.0656 18.8407 37.0665 18.8447 37.0685C18.8487 37.0706 18.8521 37.0738 18.8544 37.0777C18.8567 37.0816 18.8578 37.0861 18.8577 37.0906ZM26.9827 38.9655V44.5497C26.9828 44.5529 26.9823 44.5561 26.9811 44.559C26.9799 44.562 26.9781 44.5647 26.9759 44.5669C26.9736 44.5692 26.9709 44.571 26.968 44.5721C26.965 44.5733 26.9618 44.5739 26.9586 44.5738L25.1224 44.571C25.1192 44.571 25.1161 44.5704 25.1132 44.5692C25.1104 44.568 25.1078 44.5662 25.1056 44.5639C25.1034 44.5617 25.1017 44.5591 25.1006 44.5561C25.0994 44.5532 25.0989 44.5501 25.099 44.547V37.5858C25.0988 37.5813 25.0999 37.5769 25.1022 37.5731C25.1044 37.5692 25.1078 37.5661 25.1117 37.5641C25.1157 37.562 25.1202 37.5612 25.1246 37.5617C25.1291 37.5621 25.1333 37.5638 25.1368 37.5665L26.9731 38.947C26.9758 38.9491 26.978 38.9518 26.9796 38.9549C26.9811 38.958 26.9826 38.9621 26.9827 38.9655ZM14.7855 40.1399V47.6664C14.7855 47.6731 14.7828 47.6796 14.7781 47.6843C14.7733 47.6891 14.7668 47.6918 14.7601 47.6918H12.9266C12.9199 47.6916 12.9136 47.6888 12.909 47.6841C12.9044 47.6793 12.9018 47.673 12.9018 47.6664L12.9011 41.4805C12.9012 41.4765 12.9022 41.4725 12.9041 41.4689C12.906 41.4653 12.9088 41.4622 12.9121 41.4599L14.7463 40.1193C14.7501 40.1169 14.7545 40.1155 14.759 40.1153C14.7635 40.1151 14.768 40.1161 14.7719 40.1182C14.7759 40.1203 14.7793 40.1234 14.7817 40.1272C14.7841 40.131 14.7854 40.1354 14.7855 40.1399ZM30.6787 41.5842C30.7509 41.6206 30.9111 41.6735 30.9985 41.7367C31.0237 41.7555 31.0363 41.7806 31.0363 41.8122V47.632C31.0364 47.6399 31.0349 47.6478 31.032 47.6551C31.029 47.6624 31.0247 47.6691 31.0192 47.6747C31.0137 47.6803 31.0072 47.6848 30.9999 47.6879C30.9927 47.6909 30.985 47.6925 30.9771 47.6925L29.209 47.6918C29.1704 47.6913 29.1512 47.6721 29.1512 47.6341V40.6564C29.1511 40.649 29.1531 40.6418 29.1571 40.6357C29.1611 40.6295 29.1668 40.6246 29.1736 40.6216C29.1804 40.6186 29.1879 40.6177 29.1953 40.6188C29.2027 40.62 29.2096 40.6233 29.2151 40.6282C29.6691 41.0036 30.1569 41.3219 30.6787 41.5842ZM21.076 42.2938L22.8669 42.3001C22.8916 42.3002 22.9115 42.3202 22.9114 42.3449L22.9058 43.9458C22.9057 43.9704 22.8857 43.9903 22.861 43.9902L21.0701 43.984C21.0454 43.9839 21.0254 43.9639 21.0255 43.9392L21.0311 42.3383C21.0312 42.3137 21.0513 42.2938 21.076 42.2938ZM17.0111 46.1898H18.8185C18.839 46.1898 18.8557 46.2064 18.8557 46.2269V47.8463C18.8557 47.8668 18.839 47.8834 18.8185 47.8834H17.0111C16.9906 47.8834 16.974 47.8668 16.974 47.8463V46.2269C16.974 46.2064 16.9906 46.1898 17.0111 46.1898ZM25.144 46.1918H26.9404C26.9639 46.1918 26.983 46.2109 26.983 46.2344V47.8394C26.983 47.8629 26.9639 47.882 26.9404 47.882H25.144C25.1204 47.882 25.1013 47.8629 25.1013 47.8394V46.2344C25.1013 46.2109 25.1204 46.1918 25.144 46.1918ZM12.9535 49.3091H14.7347C14.7625 49.3091 14.7849 49.3316 14.7849 49.3593V50.9492C14.7849 50.9769 14.7625 50.9993 14.7347 50.9993H12.9535C12.9257 50.9993 12.9032 50.9769 12.9032 50.9492V49.3593C12.9032 49.3316 12.9257 49.3091 12.9535 49.3091ZM29.2042 49.3064H30.984C31.0122 49.3064 31.0349 49.3291 31.0349 49.3572V50.9492C31.0349 50.9772 31.0122 51 30.984 51H29.2042C29.1761 51 29.1533 50.9772 29.1533 50.9492V49.3572C29.1533 49.3291 29.1761 49.3064 29.2042 49.3064ZM67.845 38.9875C62.5126 38.9875 58.532 34.45 58.532 28.375C58.532 22.3 62.3999 17.7625 67.845 17.7625C70.8492 17.7625 73.4404 18.925 74.7547 21.3625H74.7923C74.7547 20.05 74.7547 19.525 74.7547 17.95V11.35H78.6226V38.5H74.7547C74.7547 37.2625 74.7547 36.55 74.7923 35.35H74.7547C73.3653 37.6375 70.8117 38.9875 67.845 38.9875ZM68.5961 35.5C72.4264 35.5 74.9049 32.575 74.9049 28.4125C74.9049 24.175 72.3889 21.325 68.5961 21.325C64.8784 21.325 62.3999 24.4 62.3999 28.4125C62.3999 32.425 64.8784 35.5 68.5961 35.5ZM83.1955 38.5V18.25H87.0635C87.0635 19.5625 87.0635 20.35 87.0259 21.625H87.0635C88.2276 19.375 90.2179 18.2125 92.6212 18.2125C92.9592 18.2125 93.3347 18.2125 93.7103 18.25V21.775H92.3208C88.866 21.775 87.0635 24.4 87.0635 27.5875V38.5H83.1955ZM106.678 39.0625C100.632 39.0625 96.576 34.5625 96.576 28.4125C96.576 22.225 100.669 17.65 106.715 17.65C112.836 17.65 116.254 21.6625 116.254 27.8125C116.254 28.375 116.216 28.8625 116.141 29.425H100.331C100.744 33.025 103.185 35.6125 106.828 35.6125C109.381 35.6125 111.372 34.375 112.536 32.05L115.765 33.6625C113.963 37.3 110.696 39.0625 106.678 39.0625ZM100.481 26.35H112.649C112.198 23.1625 110.17 21.1 106.715 21.1C103.448 21.1 101.195 23.275 100.481 26.35ZM128.963 39.025C123.518 39.025 119.65 34.5625 119.65 28.45C119.65 22.375 123.631 17.8 128.963 17.8C132.08 17.8 134.484 19.075 135.836 21.55H135.911C135.873 20.3875 135.873 19.6375 135.873 18.25H139.741V38.5H135.873C135.873 37.1125 135.873 36.5875 135.911 35.275H135.836C134.409 37.6 131.817 39.025 128.963 39.025ZM129.714 35.5C133.545 35.5 136.023 32.65 136.023 28.4125C136.023 24.25 133.507 21.325 129.714 21.325C125.997 21.325 123.518 24.4375 123.518 28.45C123.518 32.4625 125.997 35.5 129.714 35.5ZM153.101 38.9875C147.769 38.9875 143.788 34.45 143.788 28.375C143.788 22.3 147.656 17.7625 153.101 17.7625C156.105 17.7625 158.697 18.925 160.011 21.3625H160.048C160.011 20.05 160.011 19.525 160.011 17.95V11.35H163.879V38.5H160.011C160.011 37.2625 160.011 36.55 160.048 35.35H160.011C158.621 37.6375 156.068 38.9875 153.101 38.9875ZM153.852 35.5C157.683 35.5 160.161 32.575 160.161 28.4125C160.161 24.175 157.645 21.325 153.852 21.325C150.135 21.325 147.656 24.4 147.656 28.4125C147.656 32.425 150.135 35.5 153.852 35.5ZM168.452 38.5V18.25H172.32C172.32 19.5625 172.32 20.275 172.282 21.5125H172.357C173.559 19.225 175.85 17.7625 178.704 17.7625C183.623 17.7625 186.139 21.25 186.139 25.675V38.5H182.271V26.6875C182.271 23.5375 180.619 21.2875 177.389 21.2875C174.085 21.2875 172.32 23.875 172.32 26.875V38.5H168.452ZM200.41 39.0625C194.326 39.0625 190.12 34.45 190.12 28.3375C190.12 22.225 194.326 17.6875 200.41 17.6875C206.456 17.6875 210.661 22.225 210.661 28.3375C210.661 34.4125 206.456 39.0625 200.41 39.0625ZM200.41 35.5375C204.24 35.5375 206.718 32.275 206.718 28.3375C206.718 24.3625 204.277 21.175 200.41 21.175C196.504 21.175 194.026 24.3625 194.026 28.3375C194.026 32.275 196.504 35.5375 200.41 35.5375ZM223.498 38.9875C218.165 38.9875 214.185 34.45 214.185 28.375C214.185 22.3 218.053 17.7625 223.498 17.7625C226.502 17.7625 229.093 18.925 230.407 21.3625H230.445C230.407 20.05 230.407 19.525 230.407 17.95V11.35H234.275V38.5H230.407C230.407 37.2625 230.407 36.55 230.445 35.35H230.407C229.018 37.6375 226.464 38.9875 223.498 38.9875ZM224.249 35.5C228.079 35.5 230.558 32.575 230.558 28.4125C230.558 24.175 228.042 21.325 224.249 21.325C220.531 21.325 218.053 24.4 218.053 28.4125C218.053 32.425 220.531 35.5 224.249 35.5ZM248.424 39.0625C242.378 39.0625 238.322 34.5625 238.322 28.4125C238.322 22.225 242.416 17.65 248.462 17.65C254.583 17.65 258 21.6625 258 27.8125C258 28.375 257.962 28.8625 257.887 29.425H242.078C242.491 33.025 244.932 35.6125 248.574 35.6125C251.128 35.6125 253.118 34.375 254.282 32.05L257.512 33.6625C255.709 37.3 252.442 39.0625 248.424 39.0625ZM242.228 26.35H254.395C253.944 23.1625 251.916 21.1 248.462 21.1C245.195 21.1 242.941 23.275 242.228 26.35Z" stroke="currentColor" stroke-width="0.3"></path></svg>
