<svg width="161" height="54" viewBox="0 0 161 54" fill="none" xmlns="http://www.w3.org/2000/svg">
<path d="M157.627 53.0706V43.0692H145.584V53.0706H142.821V31.1456H145.584V40.7265H157.627V31.1456H160.391V53.0706H157.627Z" fill="white"/>
<path d="M130.836 50.788C133.239 50.788 135.431 49.887 136.903 48.2651V51.5088C135.221 52.7402 133.118 53.431 130.776 53.431C124.619 53.431 119.633 48.3552 119.633 42.1081C119.633 35.861 124.619 30.7852 130.776 30.7852C133.118 30.7852 135.221 31.476 136.903 32.7074V35.9511C135.431 34.3293 133.239 33.4282 130.836 33.4282C126.12 33.4282 122.396 37.2426 122.396 42.1081C122.396 46.9736 126.12 50.788 130.836 50.788Z" fill="white"/>
<path d="M103.967 43.9402V53.0706H101.204V31.1456H106.611C111.146 31.1456 114.479 33.4583 114.479 37.5729C114.479 40.7566 112.467 42.8289 109.464 43.6098L117.122 53.0706H113.849L106.49 43.9402H103.967ZM103.967 33.4583V41.6876H106.58C109.554 41.6876 111.656 40.246 111.656 37.5729C111.656 34.8999 109.554 33.4583 106.58 33.4583H103.967Z" fill="white"/>
<path d="M85.7835 30.3647L96.4156 53.0706H93.4722L90.7691 47.0938H80.7978L78.0947 53.0706H75.1814L85.7835 30.3647ZM85.7835 36.1013L81.8189 44.8713H89.748L85.7835 36.1013Z" fill="white"/>
<path d="M58.3857 53.0706V31.1456H71.3605V33.4883H61.1189V40.7265H70.5195V43.0692H61.1189V50.7279H71.4506V53.0706H58.3857Z" fill="white"/>
<path d="M38.8904 48.205C40.7225 49.887 43.0351 51.0283 45.4378 51.0283C48.0808 51.0283 50.003 49.6767 50.003 47.3941C50.003 45.7122 49.0119 44.8712 47.2098 43.9402L43.5457 42.1081C41.2931 40.9668 39.3109 39.6453 39.3109 36.702C39.3109 33.188 42.1641 30.7852 45.9784 30.7852C48.3812 30.7852 50.4535 31.8064 51.8051 33.0077V35.9811C50.1232 34.3293 48.0808 33.188 45.8883 33.188C43.6358 33.188 41.9539 34.4194 41.9539 36.5217C41.9539 38.1436 43.2153 38.9545 44.747 39.7654L48.261 41.5074C51.1143 42.919 52.646 44.3006 52.646 47.1839C52.646 50.9982 49.4324 53.431 45.3778 53.431C42.6747 53.431 40.2419 52.3498 38.8904 51.2085V48.205Z" fill="white"/>
<path d="M21.2866 53.0706V31.1456H34.2614V33.4883H24.0197V40.7265H33.4204V43.0692H24.0197V50.7279H34.3515V53.0706H21.2866Z" fill="white"/>
<path d="M3.15352 43.9402V53.0706H0.390381V31.1456H5.79653C10.3317 31.1456 13.6655 33.4583 13.6655 37.5729C13.6655 40.7566 11.6532 42.8289 8.64978 43.6098L16.3085 53.0706H13.0348L5.6764 43.9402H3.15352ZM3.15352 33.4583V41.6876H5.7665C8.73988 41.6876 10.8423 40.246 10.8423 37.5729C10.8423 34.8999 8.73988 33.4583 5.7665 33.4583H3.15352Z" fill="white"/>
<path d="M157.596 17.1329V1.06461H160.329V23.7404L144.351 6.92127V22.9896H141.618V0.313751L157.596 17.1329Z" fill="white"/>
<path d="M124.879 0.704193C131.036 0.704193 135.992 5.77997 135.992 12.0271C135.992 18.2742 131.036 23.35 124.879 23.35C118.722 23.35 113.767 18.2742 113.767 12.0271C113.767 5.77997 118.722 0.704193 124.879 0.704193ZM124.879 3.28713C120.254 3.28713 116.53 7.10147 116.53 12.0271C116.53 16.9527 120.254 20.767 124.879 20.767C129.505 20.767 133.229 16.9527 133.229 12.0271C133.229 7.10147 129.505 3.28713 124.879 3.28713Z" fill="white"/>
<path d="M92.1707 1.06461H98.2676C104.485 1.06461 109.47 5.77997 109.47 12.0271C109.47 18.2742 104.485 22.9896 98.2676 22.9896H92.1707V1.06461ZM98.1174 3.40727H94.9338V20.6469H98.1174C103.073 20.6469 106.707 16.8325 106.707 12.0271C106.707 7.22161 103.073 3.40727 98.1174 3.40727Z" fill="white"/>
<path d="M82.3909 1.06461H85.154V22.9896H82.3909V1.06461Z" fill="white"/>
<path d="M63.3425 22.9896V1.06461H76.3173V3.40727H66.0756V10.6455H75.4763V12.9882H66.0756V20.6469H76.4074V22.9896H63.3425Z" fill="white"/>
<path d="M43.8472 18.124C45.6793 19.8059 47.9919 20.9472 50.3946 20.9472C53.0376 20.9472 54.9598 19.5957 54.9598 17.3131C54.9598 15.6312 53.9687 14.7902 52.1666 13.8592L48.5025 12.0271C46.2499 10.8858 44.2676 9.56427 44.2676 6.62093C44.2676 3.10693 47.1209 0.704193 50.9352 0.704193C53.338 0.704193 55.4103 1.72536 56.7619 2.92672V5.90011C55.0799 4.24823 53.0376 3.10693 50.8451 3.10693C48.5926 3.10693 46.9107 4.33833 46.9107 6.44072C46.9107 8.06257 48.1721 8.87349 49.7038 9.68441L53.2178 11.4264C56.0711 12.838 57.6028 14.2196 57.6028 17.1029C57.6028 20.9172 54.3892 23.35 50.3345 23.35C47.6315 23.35 45.1987 22.2687 43.8472 21.1274V18.124Z" fill="white"/>
<path d="M28.6705 0.704193C34.8275 0.704193 39.7831 5.77997 39.7831 12.0271C39.7831 18.2742 34.8275 23.35 28.6705 23.35C22.5135 23.35 17.5579 18.2742 17.5579 12.0271C17.5579 5.77997 22.5135 0.704193 28.6705 0.704193ZM28.6705 3.28713C24.0452 3.28713 20.321 7.10147 20.321 12.0271C20.321 16.9527 24.0452 20.767 28.6705 20.767C33.2958 20.767 37.02 16.9527 37.02 12.0271C37.02 7.10147 33.2958 3.28713 28.6705 3.28713Z" fill="white"/>
<path d="M5.79653 13.9192H3.15352V22.9896H0.390381V1.06461H5.79653C10.3317 1.06461 13.6655 3.37724 13.6655 7.49192C13.6655 11.6066 10.3317 13.9192 5.79653 13.9192ZM3.15352 3.37724V11.5766H5.7665C8.73988 11.5766 10.8423 10.165 10.8423 7.49192C10.8423 4.81888 8.73988 3.37724 5.7665 3.37724H3.15352Z" fill="white"/>
</svg>
