<?xml version="1.0" encoding="utf-8"?>
<!-- Generator: Adobe Illustrator 26.3.1, SVG Export Plug-In . SVG Version: 6.00 Build 0)  -->
<svg version="1.1" id="logo" xmlns="http://www.w3.org/2000/svg" xmlns:xlink="http://www.w3.org/1999/xlink" x="0px" y="0px"
	 viewBox="0 0 470.6 201.9" style="enable-background:new 0 0 470.6 201.9;" xml:space="preserve">
<style type="text/css">
	.st0{fill:#FFFFFF;}
</style>
<g>
	<path class="st0" d="M198,117.7l-13.3-34.6h8.4l9.6,26.6l9.6-26.6h8.4l-13.3,34.6H198z"/>
	<path class="st0" d="M223.8,117.7V83.1h24.5v6.5h-17.1v7.3h16.8v6.5h-16.8v7.9h17.1v6.5H223.8z"/>
	<path class="st0" d="M273.6,117.7l-6.8-12.3h-5.4v12.3H254V83.1h16.2c7.2,0,11.7,4.7,11.7,11.2c0,6.1-3.9,9.4-7.6,10.3l7.8,13.2
		H273.6z M274.3,94.2c0-2.9-2.2-4.6-5.1-4.6h-7.8v9.3h7.8C272.1,98.9,274.3,97.2,274.3,94.2z"/>
	<path class="st0" d="M284.9,112.9l2.6-3.3c2.2,2.6,6,5,10.8,5c6.2,0,8.1-3.3,8.1-6c0-8.9-20.5-3.9-20.5-16.3
		c0-5.7,5.1-9.7,11.9-9.7c5.2,0,9.3,1.8,12.3,4.9l-2.6,3.2c-2.6-2.9-6.2-4.2-10-4.2c-4.1,0-7.1,2.2-7.1,5.5
		c0,7.8,20.5,3.3,20.5,16.2c0,5-3.4,10.2-12.8,10.2C292.3,118.4,287.8,116.1,284.9,112.9z"/>
	<path class="st0" d="M316.4,117.7V83.1h13.9c7,0,10.8,4.8,10.8,10.4c0,5.7-3.9,10.4-10.8,10.4h-9.6v13.8H316.4z M336.7,93.5
		c0-3.9-2.8-6.6-6.9-6.6h-9.1v13.2h9.1C333.9,100.1,336.7,97.4,336.7,93.5z"/>
	<path class="st0" d="M365.9,117.7l-8.8-13.8h-7v13.8h-4.3V83.1h13.9c6.3,0,10.9,4,10.9,10.4c0,6.2-4.3,9.7-9,10.1l9.3,14.1H365.9z
		 M366.2,93.5c0-3.9-2.9-6.6-7-6.6h-9.1v13.2h9.1C363.3,100.2,366.2,97.4,366.2,93.5z"/>
	<path class="st0" d="M377.4,117.7V83.1h4.3v34.6H377.4z"/>
	<path class="st0" d="M397.4,117.7V87h-11v-3.8h26.3V87h-11v30.8H397.4z"/>
	<path class="st0" d="M418.4,117.7V83.1h22.7V87h-18.4v11.2h18v3.8h-18v11.9h18.4v3.8H418.4z"/>
</g>
<g>
	<g>
		<path class="st0" d="M83,68.2L59.9,57.1l11.4,22.7C74.3,75.1,78.3,71.2,83,68.2z"/>
	</g>
	<g>
		<path class="st0" d="M123.8,68.4c4.7,3,8.6,7,11.6,11.7l11.2-23.1L123.8,68.4z"/>
	</g>
	<g>
		<path class="st0" d="M71,120.7l-11.1,23l22.7-11.4C78,129.4,74,125.4,71,120.7z"/>
	</g>
	<g>
		<path class="st0" d="M135.2,121c-3,4.7-7,8.6-11.7,11.6l23.1,11.2L135.2,121z"/>
	</g>
</g>
<g>
	<path class="st0" d="M103.2,66.4c-18.8,0-34.1,15.2-34.1,34.1c0,18.8,15.2,34.1,34.1,34.1s34.1-15.2,34.1-34.1
		C137.3,81.6,122,66.4,103.2,66.4z M103.2,123.9L80.8,85.1h15l7.4,12.9l7.4-12.9h15L103.2,123.9z"/>
	<g>
		<path class="st0" d="M90,64.7l13.2-39.5v37.2c5.8,0,11.4,1.3,16.3,3.7l-14.4-41.5l-1.9-5.5l-1.9,5.6L87.6,65.7
			C88.4,65.4,89.2,65,90,64.7z"/>
	</g>
	<g>
		<path class="st0" d="M116.4,136.1l-13.2,39.6l0-0.1l0,0.1v-37.2c-5.8,0-11.4-1.3-16.3-3.7l14.5,41.6l1.9,5.5l1.9-5.6l13.8-41.2
			C118.1,135.5,117.2,135.8,116.4,136.1z"/>
	</g>
	<g>
		<path class="st0" d="M67.5,113.6L28,100.4h37.2c0,0,0,0,0,0c0-5.8,1.3-11.4,3.7-16.3L27.3,98.5l-5.5,1.9l5.6,1.9l41.2,13.7
			C68.1,115.3,67.8,114.5,67.5,113.6z"/>
	</g>
	<g>
		<path class="st0" d="M179.1,98.5l-41.3-13.8c0.4,0.8,0.7,1.6,1,2.4l39.6,13.2h-37.3c0,5.9-1.3,11.4-3.7,16.4l41.6-14.5l5.5-1.9
			L179.1,98.5z"/>
	</g>
</g>
</svg>
