<svg xmlns="http://www.w3.org/2000/svg" width="139" height="27" viewBox="0 0 139 27" fill="none"><path fill-rule="evenodd" clip-rule="evenodd" d="M81.536 0C85.2678 6.0448e-07 87.99 0.544387 90.3098 1.6331C92.6533 2.69813 94.4643 4.22459 95.7425 6.21264C97.0445 8.17705 97.6955 10.4966 97.6955 13.171C97.6955 14.4964 97.5299 15.751 97.1985 16.9344C96.8671 18.0941 96.3817 19.171 95.7425 20.165C95.1034 21.1354 94.3223 22.0112 93.3991 22.7922C92.4996 23.5495 91.4697 24.2004 90.3098 24.7448C89.1736 25.2655 87.919 25.656 86.5461 25.9163C85.1731 26.2003 83.0983 26.3423 81.536 26.3423C78.435 26.3423 75.1057 25.8098 72.7621 24.7448C70.4423 23.6561 68.6314 22.1294 67.3294 20.165C66.0511 18.1769 65.4118 15.8455 65.4118 13.171C65.4118 11.822 65.5777 10.5676 65.9091 9.40791C66.2405 8.24819 66.7256 7.18301 67.3648 6.21264C68.0039 5.21862 68.7733 4.34305 69.6728 3.5857C70.5724 2.80465 71.6022 2.15379 72.7621 1.6331C73.922 1.08875 75.1766 0.686346 76.5259 0.426004C77.8989 0.14199 79.9736 0 81.536 0ZM81.536 2.83994C80.305 2.83994 78.5498 2.95835 77.4846 3.19503C76.4193 3.40803 75.4488 3.72753 74.573 4.15354C73.6971 4.57956 72.9158 5.10035 72.2293 5.71571C71.5665 6.3074 70.9984 6.99379 70.525 7.77481C70.0515 8.53219 69.6965 9.37245 69.4598 10.2955C69.2231 11.1948 69.1047 12.1533 69.1046 13.171C69.1046 15.2065 69.5662 17.0054 70.4894 18.5675C71.4363 20.1296 72.7976 21.3484 74.573 22.2241C76.3484 23.0761 79.0741 23.5021 81.536 23.5021C82.7669 23.5021 84.5222 23.3956 85.5874 23.1826C86.6526 22.9459 87.6232 22.6145 88.499 22.1885C89.3985 21.7625 90.1799 21.2536 90.8427 20.6619C91.5291 20.0466 92.1089 19.3602 92.5823 18.6028C93.0557 17.8218 93.411 16.9817 93.6478 16.0824C93.8845 15.1593 94.0026 14.1887 94.0026 13.171C94.0026 11.112 93.5292 9.31321 92.5823 7.77481C91.6354 6.21276 90.2744 5.00557 88.499 4.15354C86.7473 3.27784 84.6286 2.83994 81.536 2.83994Z" fill="white"/><path fill-rule="evenodd" clip-rule="evenodd" d="M54.4938 0.396846C56.7189 0.396866 58.4824 0.941247 59.7844 2.02994C61.0863 3.11867 61.7373 4.59812 61.7373 6.46789C61.7373 7.65122 61.4887 8.68074 60.9917 9.55642C60.5182 10.4321 59.8198 11.1304 58.8966 11.6511C58.2165 12.0269 57.4144 12.3009 56.4907 12.4737C57.6379 12.5728 58.653 12.8429 59.5357 13.2842C60.6483 13.8049 61.5006 14.5387 62.0924 15.4854C62.7078 16.4084 63.0155 17.497 63.0155 18.7513C63.0155 20.1714 62.6724 21.4141 61.9859 22.4791C61.2994 23.5205 60.317 24.3253 59.0387 24.8933C57.7841 25.4613 56.2808 25.7453 54.5291 25.7453H34.94V0.396846H54.4938ZM38.4554 22.9051H53.9965C55.0854 22.9051 56.0204 22.7276 56.8016 22.3726C57.5828 21.9939 58.1866 21.4731 58.6127 20.8104C59.0624 20.1241 59.2871 19.3311 59.2871 18.4318C59.2871 17.4852 59.0741 16.6806 58.648 16.0179C58.2456 15.3315 57.6656 14.8107 56.9081 14.4557C56.1506 14.077 55.2392 13.8876 54.174 13.8876H38.4554V22.9051ZM38.4554 11.2251H53.8544C54.7302 11.2251 55.4878 11.0593 56.1269 10.7279C56.766 10.3729 57.2633 9.88785 57.6184 9.2725C57.9735 8.63346 58.151 7.88778 58.151 7.03573C58.151 5.80504 57.7485 4.87015 56.9437 4.23113C56.1625 3.56844 55.0145 3.23705 53.4995 3.23703H38.4554V11.2251Z" fill="white"/><path d="M108.641 22.2053L115.6 2.95435C116.023 1.7839 117.134 1.00397 118.379 1.00397C119.627 1.00399 120.74 1.78759 121.161 2.96201L128.001 22.2812L135.231 0.396846H138.568L130.606 23.788C130.208 24.9584 129.108 25.7453 127.872 25.7453C126.661 25.7453 125.579 24.9902 125.161 23.854L118.152 4.79081L111.18 23.8377C110.761 24.9834 109.67 25.7453 108.45 25.7453C107.203 25.7453 106.094 24.9498 105.695 23.7682L97.8055 0.396846H101.498L108.641 22.2053Z" fill="white"/><path d="M12.12 8.10269C13.8899 9.96555 14.518 11.3171 14.5739 12.9492H14.5786C14.5786 12.9907 14.5781 13.0322 14.5774 13.0736C14.5781 13.1149 14.5786 13.1563 14.5786 13.1977H14.5739C14.518 14.8299 13.8899 16.1816 12.12 18.0445L4.96331 25.7543H0L10.2623 14.969C11.2725 13.9072 11.2725 12.2397 10.2623 11.1779L0 0.392647H4.96331L12.12 8.10269Z" fill="white"/><path d="M21.216 11.1779C20.2057 12.2397 20.2057 13.9072 21.216 14.969L31.4782 25.7543H26.5149L19.3582 18.0445C17.5884 16.1816 16.9603 14.8299 16.9044 13.1977H16.8996C16.8996 13.1563 16.9002 13.1149 16.9009 13.0736C16.9002 13.0322 16.8996 12.9907 16.8996 12.9492H16.9044C16.9603 11.3171 17.5884 9.96556 19.3582 8.10269L26.5149 0.392647H31.4782L21.216 11.1779Z" fill="white"/></svg>